<mxfile host="Electron" agent="Mozilla/5.0 (Windows NT 10.0; Win64; x64) AppleWebKit/537.36 (KHTML, like Gecko) draw.io/28.1.2 Chrome/138.0.7204.243 Electron/37.4.0 Safari/537.36" version="28.1.2">
  <diagram name="PÃ¡gina-1" id="EALYHlSjgv20pR83JTLl">
    <mxGraphModel dx="721" dy="471" grid="1" gridSize="10" guides="1" tooltips="1" connect="1" arrows="1" fold="1" page="1" pageScale="1" pageWidth="827" pageHeight="1169" math="0" shadow="0">
      <root>
        <mxCell id="0" />
        <mxCell id="1" parent="0" />
        <mxCell id="Hojz-9U8N31MvjA0aOlw-19" value="" style="rounded=0;whiteSpace=wrap;html=1;" parent="1" vertex="1">
          <mxGeometry x="60" y="370" width="690" height="50" as="geometry" />
        </mxCell>
        <mxCell id="Hojz-9U8N31MvjA0aOlw-20" value="" style="endArrow=none;html=1;rounded=0;" parent="1" edge="1">
          <mxGeometry width="50" height="50" relative="1" as="geometry">
            <mxPoint x="200" y="420" as="sourcePoint" />
            <mxPoint x="200" y="370" as="targetPoint" />
          </mxGeometry>
        </mxCell>
        <mxCell id="Hojz-9U8N31MvjA0aOlw-21" value="MAC Destino" style="text;html=1;align=center;verticalAlign=middle;whiteSpace=wrap;rounded=0;fontStyle=1;fontSize=14;" parent="1" vertex="1">
          <mxGeometry x="60" y="340" width="140" height="30" as="geometry" />
        </mxCell>
        <mxCell id="Hojz-9U8N31MvjA0aOlw-22" value="" style="endArrow=none;html=1;rounded=0;" parent="1" edge="1">
          <mxGeometry width="50" height="50" relative="1" as="geometry">
            <mxPoint x="340" y="420" as="sourcePoint" />
            <mxPoint x="340" y="370" as="targetPoint" />
          </mxGeometry>
        </mxCell>
        <mxCell id="Hojz-9U8N31MvjA0aOlw-24" value="MAC Origen" style="text;html=1;align=center;verticalAlign=middle;whiteSpace=wrap;rounded=0;fontStyle=1;fontSize=14;" parent="1" vertex="1">
          <mxGeometry x="200" y="340" width="140" height="30" as="geometry" />
        </mxCell>
        <mxCell id="Hojz-9U8N31MvjA0aOlw-25" value="ff:ff:ff:ff:ff:ff" style="text;html=1;align=center;verticalAlign=middle;whiteSpace=wrap;rounded=0;fontStyle=1;fontSize=14;" parent="1" vertex="1">
          <mxGeometry x="60" y="370" width="140" height="50" as="geometry" />
        </mxCell>
        <mxCell id="Hojz-9U8N31MvjA0aOlw-26" value="MAC PC1-HUB" style="text;html=1;align=center;verticalAlign=middle;whiteSpace=wrap;rounded=0;fontStyle=1;fontSize=14;" parent="1" vertex="1">
          <mxGeometry x="200" y="370" width="140" height="50" as="geometry" />
        </mxCell>
        <mxCell id="Hojz-9U8N31MvjA0aOlw-28" value="" style="endArrow=none;html=1;rounded=0;" parent="1" edge="1">
          <mxGeometry width="50" height="50" relative="1" as="geometry">
            <mxPoint x="700" y="420" as="sourcePoint" />
            <mxPoint x="700" y="370" as="targetPoint" />
          </mxGeometry>
        </mxCell>
        <mxCell id="Hojz-9U8N31MvjA0aOlw-30" value="CRC" style="text;html=1;align=center;verticalAlign=middle;whiteSpace=wrap;rounded=0;fontStyle=1;fontSize=14;" parent="1" vertex="1">
          <mxGeometry x="700" y="370" width="50" height="50" as="geometry" />
        </mxCell>
        <mxCell id="Hojz-9U8N31MvjA0aOlw-33" value="IP Org.: 10.0.0.20" style="text;html=1;align=left;verticalAlign=middle;whiteSpace=wrap;rounded=0;fontStyle=1;fontSize=12;" parent="1" vertex="1">
          <mxGeometry x="340" y="377" width="180" height="20" as="geometry" />
        </mxCell>
        <mxCell id="Hojz-9U8N31MvjA0aOlw-36" value="FCS" style="text;html=1;align=center;verticalAlign=middle;whiteSpace=wrap;rounded=0;fontStyle=1;fontSize=14;" parent="1" vertex="1">
          <mxGeometry x="700" y="340" width="50" height="30" as="geometry" />
        </mxCell>
        <mxCell id="Hojz-9U8N31MvjA0aOlw-38" value="MAC Org.: MAC PC1-HUB" style="text;html=1;align=left;verticalAlign=middle;whiteSpace=wrap;rounded=0;fontStyle=1;fontSize=12;" parent="1" vertex="1">
          <mxGeometry x="340" y="392" width="180" height="20" as="geometry" />
        </mxCell>
        <mxCell id="Hojz-9U8N31MvjA0aOlw-40" value="IP Dst.: 10.0.0.1" style="text;html=1;align=left;verticalAlign=middle;whiteSpace=wrap;rounded=0;fontStyle=1;fontSize=12;" parent="1" vertex="1">
          <mxGeometry x="520" y="377" width="180" height="20" as="geometry" />
        </mxCell>
        <mxCell id="Hojz-9U8N31MvjA0aOlw-41" value="MAC Dst.: ?" style="text;html=1;align=left;verticalAlign=middle;whiteSpace=wrap;rounded=0;fontStyle=1;fontSize=12;" parent="1" vertex="1">
          <mxGeometry x="520" y="392" width="180" height="20" as="geometry" />
        </mxCell>
        <mxCell id="Hojz-9U8N31MvjA0aOlw-42" value="ARP Request" style="text;html=1;align=center;verticalAlign=middle;whiteSpace=wrap;rounded=0;fontStyle=1;fontSize=14;" parent="1" vertex="1">
          <mxGeometry x="340" y="340" width="360" height="30" as="geometry" />
        </mxCell>
      </root>
    </mxGraphModel>
  </diagram>
</mxfile>
